# AST/ASF file generated using VICON BodyLanguage
# -----------------------------------------------
:version 1.10
:name VICON
:units
  mass 1.0
  length 0.45
  angle deg
:documentation
   .ast/.asf automatically generated from VICON data using
   VICON BodyBuilder and BodyLanguage model FoxedUp or BRILLIANT.MOD
:root
   order TX TY TZ RX RY RZ
   axis XYZ
   position 0 0 0  
   orientation 0 0 0 
:bonedata
  begin
     id 1 
     name lhipjoint
     direction 0.693937 -0.600361 0.397515 
     length 2.37164 
     axis 0 0 0  XYZ
  end
  begin
     id 2 
     name lfemur
     direction 0.34202 -0.939693 0  
     length 6.18497  
     axis 0 0 20  XYZ
    dof rx ry rz
    limits (-160.0 20.0)
           (-70.0 70.0)
           (-60.0 70.0)
  end
  begin
     id 3 
     name ltibia
     direction 0.34202 -0.939693 0   
     length 6.91601   
     axis 0 0 20   XYZ
    dof rx
    limits (-10.0 170.0)
  end
  begin
     id 4 
     name lfoot
     direction 0.0978718 -0.2689 0.958182   
     length 1.81453   
     axis -90 7.62852e-016 20   XYZ
    dof rx rz
    limits (-45.0 90.0)
           (-70.0 20.0)
  end
  begin
     id 5 
     name ltoes
     direction 1.53569e-011 -4.21951e-011 1   
     length 0.912052   
     axis -90 7.62852e-016 20   XYZ
    dof rx
    limits (-90.0 20.0)
  end
  begin
     id 6 
     name rhipjoint
     direction -0.643996 -0.637876 0.422354   
     length 2.23216  
     axis 0 0 0  XYZ 
  end
  begin
     id 7 
     name rfemur
     direction -0.34202 -0.939693 0   
     length 6.15404   
     axis 0 0 -20   XYZ
    dof rx ry rz
    limits (-160.0 20.0)
           (-70.0 70.0)
           (-70.0 60.0)
  end
  begin
     id 8 
     name rtibia
     direction -0.34202 -0.939693 0   
     length 6.86744   
     axis 0 0 -20   XYZ
    dof rx
    limits (-10.0 170.0)
 end
 begin
     id 9 
     name rfoot
     direction -0.118701 -0.326127 0.937844   
     length 1.9243  
     axis -90 -7.62852e-016 -20   XYZ
    dof rx rz
    limits (-45.0 90.0)
           (-20.0 70.0)
  end
  begin
     id 10 
     name rtoes
     direction -1.5356e-011 -4.2181e-011 1   
     length 0.958865   
     axis -90 -7.62852e-016 -20   XYZ
    dof rx
    limits (-90.0 20.0)
  end
  begin
     id 11 
     name lowerback
     direction 0.0310826 0.968686 -0.246334   
     length 2.00021   
     axis 0 0 0   XYZ
    dof rx ry rz
    limits (-20.0 45.0)
           (-30.0 30.0)
           (-30.0 30.0)
  end
  begin
     id 12 
     name upperback
     direction -0.0152834 0.999474 -0.0286152   
     length 2.03728   
     axis 0 0 0   XYZ
    dof rx ry rz
    limits (-20.0 45.0)
           (-30.0 30.0)
           (-30.0 30.0)
  end
  begin
     id 13 
     name thorax
     direction -0.0323701 0.996236 0.0804149   
     length 2.16   
     axis 0 0 0   XYZ
    dof rx ry rz
    limits (-20.0 45.0)
           (-30.0 30.0)
           (-30.0 30.0)
  end
  begin
     id 14 
     name lowerneck
     direction 0.0307935 0.982251 0.185027   
     length 1.43558   
     axis 0 0 0   XYZ
    dof rx ry rz
    limits (-20.0 45.0)
           (-30.0 30.0)
           (-30.0 30.0)
  end
  begin
     id 15 
     name upperneck
     direction -0.0927153 0.994775 0.0427454   
     length 1.44603   
     axis 0 0 0   XYZ
    dof rx ry rz
    limits (-20.0 45.0)
           (-30.0 30.0)
           (-30.0 30.0)
  end
  begin
     id 16
     name head
     direction -0.0341265 0.999406 -0.00472033  
     length 1.45931  
     axis 0 0 0   XYZ
    dof rx ry rz
    limits (-20.0 45.0)
           (-30.0 30.0)
           (-30.0 30.0)
  end
  begin
     id 17 
     name lclavicle
     direction 0.820755 0.555306 -0.134151  
     length 2.66075  
     axis 0 0 0   XYZ
    dof ry rz
    limits (-20.0 10.0)
           (0.0 20.0)
  end
  begin
     id 18 
     name lhumerus
     direction 1 -4.48971e-011 5.24853e-027   
     length 5.0546   
     axis -180 -30 -90   XYZ
    dof rx ry rz
    limits (-60.0 90.0)
           (-90.0 90.0)
           (-90.0 90.0)
  end
  begin
     id 19
     name lradius
     direction 1 -4.48971e-011 2.76575e-028   
     length 3.39013   
     axis -180 -30 -90   XYZ
    dof rx
    limits (-10.0 170.0)
  end
  begin
     id 20
     name lwrist
     direction 1 -4.48939e-011 -2.27826e-027   
     length 1.69507   
     axis 2.17013e-015 90 90   XYZ
    dof ry
    limits (-180.0 0.0)
 end
  begin
     id 21 
     name lhand
     direction 1 -4.49009e-011 -4.55652e-027   
     length 0.572425   
     axis 2.90745e-015 90 90   XYZ
    dof rx rz
    limits (-90.0 90.0)
           (-45.0 45.0)
  end
  begin
     id 22 
     name lfingers
     direction 1 -4.48955e-011 -9.11303e-027   
     length 0.461504   
     axis 5.81489e-015 90 90   XYZ
    dof rx
    limits (0.0 90.0)
  end
  begin
     id 23
     name lthumb
     direction 0.707107 -6.34929e-011 0.707107   
     length 0.66263   
     axis -90 45 2.85299e-015   XYZ
    dof rx rz
    limits (-45.0 45.0)
           (-45.0 45.0)
  end
  begin
     id 24 
     name rclavicle
     direction -0.754477 0.632921 -0.173712   
     length 2.73081  
     axis 0 0 0   XYZ 
    dof ry rz
    limits (-10.0 20.0)
           (-20.0 0.0)
  end
  begin
     id 25 
     name rhumerus
     direction -1 -4.48969e-011 5.1496e-027  
     length 5.0701   
     axis -180 30 90   XYZ
    dof rx ry rz
    limits (-90.0 60.0)
           (-90.0 90.0)
           (-90.0 90.0)
  end
  begin
     id 26 
     name rradius
     direction -1 -4.48967e-011 -7.15624e-028   
     length 3.14957   
     axis -180 30 90   XYZ
    dof rx
    limits (-10.0 170.0)
  end
  begin
     id 27 
     name rwrist
     direction -1 -4.48938e-011 -2.27826e-027   
     length 1.57479   
     axis 2.17013e-015 -90 -90   XYZ
    dof ry
    limits (-180.0 0.0)
  end
  begin
     id 28
     name rhand
     direction -1 -4.49008e-011 -4.55652e-027   
     length 0.718191   
     axis 2.90745e-015 -90 -90   XYZ
    dof rx rz
    limits (-90.0 90.0)
           (-45.0 45.0)
  end
  begin
     id 29
     name rfingers
     direction -1 -4.48953e-011 -9.11303e-027   
     length 0.579024   
     axis 5.81489e-015 -90 -90   XYZ
    dof rx
    limits (0.0 90.0)
  end
  begin
     id 30
     name rthumb
     direction -0.707107 -6.34937e-011 0.707107   
     length 0.831366   
     axis -90 -45 -2.85299e-015   XYZ
    dof rx rz
    limits (-45.0 45.0)
           (-45.0 45.0)
  end
:hierarchy
  begin
    root lhipjoint rhipjoint lowerback
    lhipjoint lfemur
    lfemur ltibia
    ltibia lfoot
    lfoot ltoes
    rhipjoint rfemur
    rfemur rtibia
    rtibia rfoot
    rfoot rtoes
    lowerback upperback
    upperback thorax
    thorax lowerneck lclavicle rclavicle
    lowerneck upperneck
    upperneck head
    lclavicle lhumerus
    lhumerus lradius
    lradius lwrist
    lwrist lhand lthumb
    lhand lfingers
    rclavicle rhumerus
    rhumerus rradius
    rradius rwrist
    rwrist rhand rthumb
    rhand rfingers
  end

#!OML:ASF H:\Male1\Project 1\Capture day 1\Session 1\Male1.ASF
:FULLY-SPECIFIED
:DEGREES
136
root 17.1891 15.1749 2.13426 374.975 -84.9464 -375.598
lowerback 6.97671 1.01213 -0.28122
upperback 3.43599 1.24479 -0.18386
thorax -0.371476 0.585567 -0.119796
lowerneck -4.91277 5.81455 10.8328
upperneck 9.79718 7.25549 -4.48156
head 4.30296 3.73173 -2.71772
rclavicle 1.88845e-015 -7.35503e-015
rhumerus -36.091 2.45804 -88.109
rradius 30.914
rwrist -16.6609
rhand -15.3617 1.82328
rfingers 7.12502
rthumb 10.8158 -27.8782
lclavicle 1.88845e-015 -7.35503e-015
lhumerus -31.3748 -10.5325 90.2676
lradius 35.7355
lwrist 6.96672
lhand -20.7908 15.0682
lfingers 7.12502
lthumb 5.57637 44.9748
rfemur -16.3816 12.1577 28.5917
rtibia 31.4911
rfoot -23.0782 -24.5193
rtoes -16.395
lfemur 1.28578 0.130592 -23.2642
ltibia 45.6917
lfoot -9.77606 2.39111
ltoes -29.1018
137
root 17.0216 15.1806 2.13191 379.555 -84.5257 -380.347
lowerback 7.18947 1.01734 0.342816
upperback 3.45148 1.29073 -0.017466
thorax -0.462857 0.613259 -0.305773
lowerneck -4.8178 5.75523 10.8287
upperneck 9.54248 7.19842 -4.5951
head 4.20827 3.69676 -2.76113
rclavicle -2.29596e-014 2.38542e-015
rhumerus -36.1277 2.66331 -88.1795
rradius 31.421
rwrist -16.5919
rhand -15.2304 1.41056
rfingers 7.12502
rthumb 10.9425 -28.2843
lclavicle -2.29596e-014 2.38542e-015
lhumerus -31.9809 -10.1328 90.0484
lradius 35.8704
lwrist 6.93828
lhand -20.9204 14.5129
lfingers 7.12502
lthumb 5.4512 44.4228
rfemur -15.0423 12.0424 29.4552
rtibia 30.7182
rfoot -23.3954 -24.7825
rtoes -15.8965
lfemur -1.33729 0.682142 -21.7659
ltibia 50.7747
lfoot -7.29063 -0.0335445
ltoes -28.4764
138
root 16.8571 15.1861 2.13335 384.806 -84.182 -385.787
lowerback 7.37914 1.06586 1.00442
upperback 3.51608 1.39773 0.214035
thorax -0.489421 0.67038 -0.449683
lowerneck -4.64321 5.69749 10.7107
upperneck 9.05516 7.16126 -4.71896
head 4.02687 3.66608 -2.79281
rclavicle 1.39149e-014 -3.77691e-015
rhumerus -36.1109 3.03531 -88.2201
rradius 31.9982
rwrist -16.6275
rhand -15.2881 1.08974
rfingers 7.12502
rthumb 10.8869 -28.608
lclavicle 1.39149e-014 -3.77691e-015
lhumerus -32.5144 -9.57987 89.8443
lradius 35.9674
lwrist 6.7266
lhand -21.0056 14.5303
lfingers 7.12502
lthumb 5.36892 44.4423
rfemur -13.7094 11.7457 30.3879
rtibia 29.9426
rfoot -23.5467 -24.775
rtoes -15.6999
lfemur -3.87189 1.115 -20.2909
ltibia 55.538
lfoot -5.63533 -1.62523
ltoes -26.8251
139
root 16.6942 15.1883 2.1391 387.548 -83.9529 -388.866
lowerback 7.71252 1.1293 1.46612
upperback 3.65558 1.51014 0.346996
thorax -0.518672 0.727469 -0.585566
lowerneck -4.56158 5.68686 10.7221
upperneck 8.59481 7.16678 -4.85978
head 3.87851 3.65959 -2.84418
rclavicle -1.93815e-014 -6.55989e-015
rhumerus -35.947 3.58294 -88.3621
rradius 32.4716
rwrist -16.9619
rhand -15.5616 1.0111
rfingers 7.12502
rthumb 10.6231 -28.7004
lclavicle -1.93815e-014 -6.55989e-015
lhumerus -32.9168 -8.91121 89.553
lradius 35.9484
lwrist 6.41474
lhand -20.9461 14.814
lfingers 7.12502
lthumb 5.42638 44.7245
rfemur -12.2464 11.2546 31.0493
rtibia 29.2206
rfoot -23.6916 -24.4937
rtoes -15.5292
lfemur -6.17781 1.32345 -19.2553
ltibia 59.7937
lfoot -4.85752 -2.31462
ltoes -27.3866
140
root 16.535 15.1849 2.145 389.604 -83.8444 -391.258
lowerback 8.06271 1.25415 1.83315
upperback 3.81508 1.69826 0.406909
thorax -0.533347 0.821941 -0.750398
lowerneck -4.68018 5.64979 10.8444
upperneck 8.35809 7.11029 -5.03052
head 3.83184 3.62474 -2.91835
rclavicle -1.09332e-014 -5.76476e-015
rhumerus -35.5726 4.05631 -88.5261
rradius 32.6902
rwrist -17.3175
rhand -15.9159 1.09325
rfingers 7.12502
rthumb 10.2813 -28.6355
lclavicle -1.09332e-014 -5.76476e-015
lhumerus -33.1772 -8.33202 89.2272
lradius 35.7358
lwrist 6.16362
lhand -20.913 14.8494
lfingers 7.12502
lthumb 5.4583 44.7591
rfemur -10.8643 11.0874 31.5948
rtibia 28.6169
rfoot -23.9755 -24.4134
rtoes -15.295
lfemur -8.36819 1.34825 -18.487
ltibia 63.4405
lfoot -4.71526 -2.03101
ltoes -22.7824
141
root 16.3719 15.1865 2.1504 390.556 -83.9456 -392.395
lowerback 8.2267 1.43481 1.96343
upperback 3.92743 1.94377 0.393001
thorax -0.495839 0.944892 -0.860237
lowerneck -4.76865 5.65236 10.7145
upperneck 8.13369 7.10547 -4.94001
head 3.76969 3.61898 -2.87022
rclavicle 1.24737e-014 6.75868e-015
rhumerus -35.2052 4.26976 -88.6053
rradius 32.8396
rwrist -17.3643
rhand -16.1713 1.02729
rfingers 7.12502
rthumb 10.0349 -28.7135
lclavicle 1.24737e-014 6.75868e-015
lhumerus -33.4477 -7.71303 88.8745
lradius 35.3439
lwrist 6.01669
lhand -21.1507 14.699
lfingers 7.12502
lthumb 5.22881 44.6145
rfemur -9.65488 11.273 31.9208
rtibia 28.1075
rfoot -24.4796 -24.6566
rtoes -15.887
lfemur -10.5794 1.33214 -18.0601
ltibia 66.4217
lfoot -5.44388 -0.0783606
ltoes -26.8449
142
root 16.2011 15.1945 2.15711 388.206 -84.1372 -390.15
lowerback 8.30677 1.57391 1.78703
upperback 3.99146 2.11223 0.243107
thorax -0.469893 1.02793 -0.930798
lowerneck -4.68843 5.69471 10.5573
upperneck 7.7508 7.16671 -4.79081
head 3.63377 3.64756 -2.80212
rclavicle -3.24019e-014 -2.78299e-015
rhumerus -34.8717 4.41545 -88.7294
rradius 32.9126
rwrist -17.2542
rhand -16.2055 1.00211
rfingers 7.12502
rthumb 10.0019 -28.7402
lclavicle -3.24019e-014 -2.78299e-015
lhumerus -33.7629 -7.08686 88.4381
lradius 34.8259
lwrist 6.00376
lhand -21.3353 15.0655
lfingers 7.12502
lthumb 5.05061 44.9853
rfemur -8.48431 11.4128 31.8665
rtibia 27.6252
rfoot -24.9472 -25.0573
rtoes -17.164
lfemur -12.7411 1.03704 -18.1505
ltibia 68.7118
lfoot -5.54496 2.16383
ltoes -23.9982
